G04 Layer_Physical_Order=2*
G04 Layer_Color=16711680*
%FSLAX25Y25*%
%MOIN*%
G70*
G01*
G75*
%ADD10R,0.02953X0.03150*%
%ADD11R,0.04921X0.01575*%
%ADD12C,0.01181*%
%ADD13R,0.07874X0.06299*%
%ADD14O,0.07874X0.06299*%
%ADD15C,0.02362*%
G36*
X62992Y50113D02*
X62205D01*
Y52638D01*
X51968D01*
Y43976D01*
X62205D01*
Y46501D01*
X62992D01*
Y24247D01*
X60984D01*
X58893Y26339D01*
Y34256D01*
X58957Y34264D01*
X59967Y34682D01*
X60834Y35348D01*
X61499Y36214D01*
X61917Y37224D01*
X61994Y37807D01*
X52180D01*
X52256Y37224D01*
X52675Y36214D01*
X53340Y35348D01*
X54207Y34682D01*
X55216Y34264D01*
X55280Y34256D01*
Y25591D01*
X55418Y24899D01*
X55809Y24313D01*
X58959Y21164D01*
X59545Y20772D01*
X60236Y20635D01*
X62992D01*
Y3937D01*
X3937D01*
Y74803D01*
X62992D01*
Y50113D01*
D02*
G37*
%LPC*%
G36*
X33358Y26534D02*
X33007Y26464D01*
X32286Y25982D01*
X31804Y25260D01*
X31734Y24909D01*
X33358D01*
Y26534D01*
D02*
G37*
G36*
X35983Y23910D02*
X34358D01*
Y22285D01*
X34709Y22355D01*
X35431Y22837D01*
X35913Y23558D01*
X35983Y23910D01*
D02*
G37*
G36*
X33358D02*
X31734D01*
X31804Y23558D01*
X32286Y22837D01*
X33007Y22355D01*
X33358Y22285D01*
Y23910D01*
D02*
G37*
G36*
X57874Y42492D02*
X57587D01*
Y38807D01*
X61994D01*
X61917Y39390D01*
X61499Y40400D01*
X60834Y41267D01*
X59967Y41932D01*
X58957Y42350D01*
X57874Y42492D01*
D02*
G37*
G36*
X56587D02*
X56299D01*
X55216Y42350D01*
X54207Y41932D01*
X53340Y41267D01*
X52675Y40400D01*
X52256Y39390D01*
X52180Y38807D01*
X56587D01*
Y42492D01*
D02*
G37*
G36*
X34358Y26534D02*
Y24909D01*
X35983D01*
X35913Y25260D01*
X35431Y25982D01*
X34709Y26464D01*
X34358Y26534D01*
D02*
G37*
%LPD*%
D10*
X68898Y28740D02*
D03*
Y22441D02*
D03*
D11*
Y38189D02*
D03*
Y44488D02*
D03*
D12*
X57087Y48307D02*
X67835D01*
X68898Y47244D01*
Y44488D02*
Y47244D01*
X57087Y25591D02*
Y38307D01*
X60236Y22441D02*
X68898D01*
X57087Y25591D02*
X60236Y22441D01*
X68898Y28740D02*
Y38189D01*
D13*
X57087Y48307D02*
D03*
D14*
Y38307D02*
D03*
D15*
X33858Y24409D02*
D03*
M02*
