G04 Layer_Color=65535*
%FSLAX25Y25*%
%MOIN*%
G70*
G01*
G75*
%ADD16C,0.00787*%
%ADD17C,0.01000*%
%ADD18R,0.06299X0.02362*%
D16*
X26772Y19685D02*
Y33465D01*
X20472D02*
X26772D01*
X20472Y19685D02*
Y33465D01*
Y19685D02*
X26772D01*
X44488Y38189D02*
X48425D01*
Y48425D01*
X44488D02*
X48425D01*
X44488Y53150D02*
X69685D01*
X44488Y33465D02*
Y53150D01*
Y33465D02*
X69685D01*
Y53150D01*
X27559Y45669D02*
Y56693D01*
X19685D02*
X27559D01*
X19685Y45669D02*
Y56693D01*
Y45669D02*
X27559D01*
X38189Y43700D02*
X41338D01*
X39763Y45275D02*
Y42126D01*
X7086Y8660D02*
X3937D01*
Y3937D01*
X7086D01*
X3937Y6298D02*
X5511D01*
X8660Y7086D02*
Y4724D01*
X9447Y3937D01*
X11808D01*
Y7086D01*
X14957Y2363D02*
X15744D01*
X16531Y3150D01*
Y7086D01*
X14170D01*
X13383Y6298D01*
Y4724D01*
X14170Y3937D01*
X16531D01*
X20467D02*
X18893D01*
X18106Y4724D01*
Y6298D01*
X18893Y7086D01*
X20467D01*
X21254Y6298D01*
Y5511D01*
X18106D01*
X22828Y3937D02*
Y7086D01*
X25190D01*
X25977Y6298D01*
Y3937D01*
X29913D02*
X28339D01*
X27551Y4724D01*
Y6298D01*
X28339Y7086D01*
X29913D01*
X30700Y6298D01*
Y5511D01*
X27551D01*
X36997Y3937D02*
Y8660D01*
X38572Y7086D01*
X40146Y8660D01*
Y3937D01*
X41720Y7086D02*
Y4724D01*
X42507Y3937D01*
X43294Y4724D01*
X44082Y3937D01*
X44869Y4724D01*
Y7086D01*
X47230D02*
X48804D01*
X49591Y6298D01*
Y3937D01*
X47230D01*
X46443Y4724D01*
X47230Y5511D01*
X49591D01*
X51166Y3937D02*
Y7086D01*
X53527D01*
X54314Y6298D01*
Y3937D01*
X57463Y2363D02*
X58250D01*
X59037Y3150D01*
Y7086D01*
X56676D01*
X55889Y6298D01*
Y4724D01*
X56676Y3937D01*
X59037D01*
X60612D02*
X62186D01*
X61399D01*
Y7086D01*
X60612D01*
X37402Y31889D02*
X40550D01*
D17*
X7874Y49213D02*
Y55211D01*
X10873D01*
X11873Y54211D01*
Y52212D01*
X10873Y51212D01*
X7874D01*
X9873D02*
X11873Y49213D01*
X13872D02*
X15871D01*
X14872D01*
Y55211D01*
X13872Y54211D01*
X49274Y63085D02*
X47275D01*
X48275D01*
Y58086D01*
X47275Y57087D01*
X46275D01*
X45276Y58086D01*
X51274Y57087D02*
X53273D01*
X52273D01*
Y63085D01*
X51274Y62085D01*
X7874Y29620D02*
Y23622D01*
X10873D01*
X11873Y24622D01*
Y28620D01*
X10873Y29620D01*
X7874D01*
X13872Y23622D02*
X15871D01*
X14872D01*
Y29620D01*
X13872Y28620D01*
X72047Y47244D02*
X74047D01*
X73047D01*
Y53242D01*
X72047Y52242D01*
D18*
X23622Y20866D02*
D03*
M02*
